<svg width="28" height="26" viewBox="0 0 28 26" fill="none" xmlns="http://www.w3.org/2000/svg">
<path d="M19.9094 1C18.7115 1.07511 17.5485 1.45716 16.5195 2.11358C15.5001 2.76394 14.6421 3.6645 14.0174 4.73968C14.0096 4.75306 14.0058 4.75974 14 4.75974C13.9942 4.75974 13.9904 4.75306 13.9826 4.73968C13.3579 3.6645 12.5 2.76394 11.4805 2.11358C10.4515 1.45716 9.28845 1.07511 8.09057 1C6.21004 1 4.40652 1.79435 3.07678 3.2083C1.74704 4.62225 1 6.53998 1 8.5396C1 15.7395 14 25 14 25C14 25 27 15.8363 27 8.5396C27 6.53998 26.253 4.62225 24.9232 3.2083C23.5935 1.79435 21.79 1 19.9094 1Z" stroke="white" stroke-width="2" stroke-linecap="round" stroke-linejoin="round"/>
</svg>
