<svg width="26" height="25" viewBox="0 0 26 25" fill="none" xmlns="http://www.w3.org/2000/svg">
<path d="M6.3407 13.1847L6.63596 14.9807C6.81339 16.0599 6.9021 16.5996 7.27559 16.92C7.64907 17.2405 8.18928 17.2405 9.26969 17.2405H23.0274M6.3407 13.1847L4.709 3.25978C4.53157 2.18053 4.44285 1.6409 4.06937 1.32045C3.69589 1 3.15568 1 2.07526 1H1M6.3407 13.1847H19.9128C21.4599 13.1847 22.2335 13.1847 22.8419 12.8391C23.1047 12.6899 23.3406 12.4967 23.5397 12.2678C24.0007 11.7376 24.1626 10.9716 24.4863 9.43954C24.9624 7.18652 25.2005 6.06001 24.7887 5.21638C24.6135 4.85739 24.3617 4.54229 24.0516 4.29386C23.3228 3.71003 22.1852 3.71073 19.91 3.71212L4.81427 3.72138M23.6949 21.9721C23.6949 23.0921 22.7983 24 21.6924 24C20.5864 24 19.6899 23.0921 19.6899 21.9721C19.6899 20.8522 20.5864 19.9443 21.6924 19.9443C22.7983 19.9443 23.6949 20.8522 23.6949 21.9721ZM11.0124 21.9721C11.0124 23.0921 10.1159 24 9.00995 24C7.90401 24 7.00746 23.0921 7.00746 21.9721C7.00746 20.8522 7.90401 19.9443 9.00995 19.9443C10.1159 19.9443 11.0124 20.8522 11.0124 21.9721Z" stroke="white" stroke-width="2" stroke-linecap="round" stroke-linejoin="round"/>
</svg>
