<svg width="16" height="21" viewBox="0 0 16 21" fill="none" xmlns="http://www.w3.org/2000/svg">
<path d="M14.3 6.84615L13.1768 17.3997C13.0451 18.6366 12.9793 19.255 12.5806 19.6275C12.182 20 11.5859 20 10.3939 20H5.60612C4.41406 20 3.81803 20 3.41937 19.6275C3.02071 19.255 2.95489 18.6366 2.82325 17.3997L1.7 6.84615M15 3.92308H10.8M10.8 3.92308H5.2M10.8 3.92308C10.8 2.54513 10.8 1.85615 10.3899 1.42807C9.9799 1 9.31993 1 8 1C6.68007 1 6.0201 1 5.61005 1.42807C5.2 1.85615 5.2 2.54513 5.2 3.92308M5.2 3.92308H1M10.8 8.30769L10.1 16.3462M5.2 8.30769L5.9 16.3462" stroke="white" stroke-width="2" stroke-linecap="round" stroke-linejoin="round"/>
</svg>
