<svg version="1.1" xmlns="http://www.w3.org/2000/svg" xmlns:xlink="http://www.w3.org/1999/xlink" width="29px" height="29px" viewBox="0,0,256,256">
    <g fill="#ffffff" fill-rule="nonzero" stroke="none" stroke-width="1" stroke-linecap="butt" stroke-linejoin="miter" stroke-miterlimit="10" stroke-dasharray="" stroke-dashoffset="0" font-family="none" font-weight="none" font-size="none" text-anchor="none" style="mix-blend-mode: normal">
        <g transform="scale(10.66667,10.66667)">
            <path d="M12,1.25c-3.46,0 -6.25,2.79 -6.25,6.25c0,2.17658 1.11215,4.09168 2.80078,5.21094c-3.51669,1.05801 -6.25392,3.71548 -7.08984,7.08984c-0.42,1.68 1.02828,2.91992 2.48828,2.91992h16c1.45,0 2.90023,-1.24016 2.49023,-2.91016c-0.19,-0.75 -0.46031,-1.46109 -0.82031,-2.12109c-0.2,-0.37 -0.64977,-0.49883 -1.00977,-0.29883c-0.37,0.2 -0.49883,0.64953 -0.29883,1.01953c0.3,0.56 0.52945,1.1593 0.68945,1.7793c0.12,0.47 -0.26953,1.05078 -1.01953,1.05078h-16c-0.75,0 -1.13953,-0.57102 -1.01953,-1.04102c0.9,-3.65 4.5593,-6.44922 9.0293,-6.44922c0.00329,0 0.00648,0 0.00977,0c0.21562,0 0.42865,-0.01185 0.63867,-0.0332c0.00129,0.00009 0.00262,-0.00009 0.00391,0c1.823,0.12518 3.49443,0.72241 4.86719,1.65234c0.35,0.23 0.81078,0.14078 1.05078,-0.19922c0.23,-0.35 0.13883,-0.80906 -0.20117,-1.03906c-0.88892,-0.59755 -1.88043,-1.07201 -2.94531,-1.40039c1.70623,-1.11629 2.83594,-3.04073 2.83594,-5.23047c0,-3.46 -2.8,-6.25 -6.25,-6.25zM12,2.75c2.62,0 4.75,2.12 4.75,4.75c0,2.52643 -1.9859,4.57796 -4.47656,4.72266c-0.11144,-0.00309 -0.22173,-0.01172 -0.33399,-0.01172c-0.08087,0 -0.15975,0.00815 -0.24023,0.00976c-2.48612,-0.15801 -4.44922,-2.2034 -4.44922,-4.7207c0,-2.63 2.12,-4.75 4.75,-4.75z"></path>
        </g>
    </g>
</svg>