<svg width="36" height="36" viewBox="0 0 36 36" fill="none" xmlns="http://www.w3.org/2000/svg">
<rect width="36" height="36" rx="8" fill="#2BA1DB"/>
<path d="M27.034 7.9031C23.7548 9.31986 9.69403 15.3953 5.80903 17.0511C3.20358 18.1117 4.72885 19.1062 4.72885 19.1062C4.72885 19.1062 6.95292 19.9016 8.85957 20.4982C10.766 21.0948 11.7827 20.432 11.7827 20.432L20.743 14.1345C23.9203 11.8806 23.1579 13.7366 22.3951 14.5323C20.743 16.256 18.0104 18.9736 15.7226 21.1613C14.7058 22.0893 15.2141 22.8847 15.6592 23.2825C17.3113 24.741 21.8234 27.724 22.0774 27.9228C23.4198 28.9142 26.0605 30.3412 26.4621 27.3262L28.0508 16.9188C28.5593 13.4055 29.0676 10.1572 29.131 9.22922C29.3218 6.97509 27.034 7.9031 27.034 7.9031Z" fill="white"/>
</svg>
