<svg width="20" height="16" viewBox="0 0 20 16" fill="none" xmlns="http://www.w3.org/2000/svg">
<path d="M1 3C0.447715 3 0 3.44772 0 4C0 4.55228 0.447715 5 1 5V3ZM19 5C19.5523 5 20 4.55228 20 4C20 3.44772 19.5523 3 19 3V5ZM19 13C19.5523 13 20 12.5523 20 12C20 11.4477 19.5523 11 19 11V13ZM1 11C0.447715 11 0 11.4477 0 12C0 12.5523 0.447715 13 1 13V11ZM1 5H10V3H1V5ZM16 5H19V3H16V5ZM10 13H19V11H10V13ZM1 13H4V11H1V13ZM15 4C15 5.10457 14.1046 6 13 6V8C15.2091 8 17 6.20914 17 4H15ZM13 6C11.8954 6 11 5.10457 11 4H9C9 6.20914 10.7909 8 13 8V6ZM11 4C11 2.89543 11.8954 2 13 2V0C10.7909 0 9 1.79086 9 4H11ZM13 2C14.1046 2 15 2.89543 15 4H17C17 1.79086 15.2091 0 13 0V2ZM9 12C9 13.1046 8.10457 14 7 14V16C9.20914 16 11 14.2091 11 12H9ZM7 14C5.89543 14 5 13.1046 5 12H3C3 14.2091 4.79086 16 7 16V14ZM5 12C5 10.8954 5.89543 10 7 10V8C4.79086 8 3 9.79086 3 12H5ZM7 10C8.10457 10 9 10.8954 9 12H11C11 9.79086 9.20914 8 7 8V10Z" fill="#28272B"/>
</svg>
