<svg xmlns="http://www.w3.org/2000/svg" width="36" height="36" viewBox="0 0 36 36" fill="none">
    <rect width="36" height="36" rx="8" fill="#929292"/>
    <path d="M25.3891 18.5361L25.3878 18.5348C25.3411 18.4885 25.2858 18.4518 25.225 18.4269C25.1642 18.4019 25.099 18.3892 25.0333 18.3894C24.9676 18.3897 24.9025 18.4029 24.8419 18.4282C24.7812 18.4536 24.7262 18.4907 24.6799 18.5373C24.6335 18.584 24.5969 18.6393 24.5719 18.7001C24.547 18.7609 24.5343 18.826 24.5345 18.8918C24.5347 18.9575 24.5479 19.0226 24.5733 19.0832C24.5986 19.1438 24.6357 19.1989 24.6824 19.2452L24.3301 19.6L24.6817 19.2446C25.5749 20.1283 26.2839 21.1804 26.7677 22.34C27.2514 23.4996 27.5004 24.7436 27.5001 26L25.3891 18.5361ZM25.3891 18.5361C26.3777 19.5107 27.1621 20.6726 27.6963 21.954C28.2305 23.2354 28.5037 24.6104 28.5001 25.9987V26C28.5001 27.2925 27.3642 28.424 25.3112 29.2553C23.3024 30.0687 20.6197 30.5 18.0001 30.5C15.3804 30.5 12.6977 30.0687 10.689 29.2553C8.63591 28.424 7.50006 27.2925 7.50006 26L7.50006 25.9983M25.3891 18.5361L7.50006 25.9983M7.50006 25.9983C7.49541 24.6191 7.76461 23.2527 8.29205 21.9784C8.81947 20.704 9.59462 19.5471 10.5726 18.5746L7.50006 25.9983ZM24.7373 28.4246C23.1073 29.0474 20.7953 29.5 18.0001 29.5C15.2048 29.5 12.8928 29.0474 11.2628 28.4246C10.4501 28.114 9.78764 27.7538 9.31821 27.3709C8.87107 27.0061 8.50022 26.5378 8.50006 26.0004C8.49843 24.7523 8.74274 23.5161 9.21904 22.3625C9.69531 21.2089 10.3942 20.1606 11.2758 19.2772C11.3687 19.1835 11.4209 19.057 11.4209 18.925C11.4209 18.7934 11.369 18.6671 11.2765 18.5735C11.1829 18.4811 11.0566 18.4292 10.9251 18.4292C10.793 18.4292 10.6663 18.4815 10.5726 18.5745L24.7373 28.4246ZM24.7373 28.4246C25.55 28.114 26.2125 27.7538 26.6819 27.3709M24.7373 28.4246L26.6819 27.3709M26.6819 27.3709C27.1291 27.006 27.5 26.5376 27.5001 26.0001L26.6819 27.3709ZM21.6113 17.4046C20.5423 18.1188 19.2856 18.5 18.0001 18.5C16.2762 18.5 14.6229 17.8152 13.4039 16.5962C12.1849 15.3772 11.5001 13.7239 11.5001 12C11.5001 10.7144 11.8813 9.45772 12.5955 8.3888C13.3097 7.31988 14.3249 6.48676 15.5126 5.99479C16.7003 5.50282 18.0073 5.37409 19.2682 5.6249C20.529 5.8757 21.6872 6.49477 22.5963 7.40381C23.5053 8.31285 24.1244 9.47104 24.3752 10.7319C24.626 11.9928 24.4972 13.2997 24.0053 14.4874C23.5133 15.6752 22.6802 16.6903 21.6113 17.4046ZM21.0557 7.42692C20.1512 6.82257 19.0879 6.5 18.0001 6.5C16.5414 6.5 15.1424 7.07947 14.111 8.11092C13.0795 9.14237 12.5001 10.5413 12.5001 12C12.5001 13.0878 12.8226 14.1512 13.427 15.0556C14.0313 15.9601 14.8903 16.6651 15.8953 17.0813C16.9003 17.4976 18.0062 17.6065 19.0731 17.3943C20.14 17.1821 21.12 16.6583 21.8891 15.8891C22.6583 15.1199 23.1822 14.1399 23.3944 13.073C23.6066 12.0061 23.4977 10.9002 23.0814 9.89524C22.6651 8.89025 21.9602 8.03127 21.0557 7.42692Z" fill="#E31235" stroke="white"/>
</svg>