<svg width="24" height="21" viewBox="0 0 24 21" fill="none" xmlns="http://www.w3.org/2000/svg">
<path d="M4.56047 12.4763L4.7573 13.7257C4.87559 14.4765 4.93474 14.8519 5.18372 15.0748C5.43271 15.2977 5.79285 15.2977 6.51313 15.2977H15.6849M4.56047 12.4763L3.47267 5.57202C3.35438 4.82124 3.29523 4.44585 3.04625 4.22292C2.79726 4 2.43712 4 1.71684 4H1M4.56047 12.4763H13.6085C14.6399 12.4763 15.1556 12.4763 15.5613 12.2359C15.7364 12.1321 15.8937 11.9977 16.0264 11.8385C16.3338 11.4696 16.4417 10.9367 16.6575 9.87099C16.975 8.30366 17.1337 7.52 16.8592 6.93314C16.7423 6.6834 16.5745 6.4642 16.3677 6.29138C15.8819 5.88524 15.1235 5.88573 13.6067 5.8867L3.54285 5.89313M16.1299 18.5893C16.1299 19.3684 15.5322 20 14.7949 20C14.0576 20 13.4599 19.3684 13.4599 18.5893C13.4599 17.8102 14.0576 17.1786 14.7949 17.1786C15.5322 17.1786 16.1299 17.8102 16.1299 18.5893ZM7.67496 18.5893C7.67496 19.3684 7.07727 20 6.33997 20C5.60267 20 5.00498 19.3684 5.00498 18.5893C5.00498 17.8102 5.60267 17.1786 6.33997 17.1786C7.07727 17.1786 7.67496 17.8102 7.67496 18.5893Z" stroke="white" stroke-width="2" stroke-linecap="round" stroke-linejoin="round"/>
<path d="M24 2.62498V4.37497H17V2.62498H24ZM21.375 4.33512e-05V7H19.625V0L21.375 4.33512e-05Z" fill="white"/>
</svg>
