<svg width="16" height="16" viewBox="0 0 16 16" fill="none" xmlns="http://www.w3.org/2000/svg">
<path d="M15.2695 11.6091C14.6059 10.9273 12.7198 9.65 11.4836 9.65C11.1973 9.65 10.9473 9.71364 10.7428 9.84546C10.1383 10.2318 9.65658 10.5318 9.42479 10.5318C9.29754 10.5318 9.16119 10.4182 8.86123 10.1591L8.81124 10.1136C7.97953 9.39091 7.80228 9.20455 7.47959 8.86818L7.39779 8.78182C7.3387 8.72273 7.28871 8.66818 7.23872 8.61818C6.95694 8.32727 6.75242 8.11818 6.02979 7.3L5.99797 7.26364C5.65256 6.87273 5.42532 6.61818 5.41168 6.43182C5.39805 6.25 5.55712 5.95455 5.96161 5.40455C6.45246 4.74091 6.47064 3.92273 6.0207 2.97273C5.66165 2.22273 5.07537 1.50455 4.55725 0.872728L4.5118 0.818182C4.06641 0.272727 3.54829 0 2.9711 0C2.33027 0 1.79852 0.345454 1.51674 0.527273C1.49402 0.540909 1.47129 0.559091 1.44857 0.572727C0.816836 0.972727 0.357805 1.52273 0.1851 2.08182C-0.0739563 2.92273 -0.246661 4.01364 0.994085 6.28182C2.06667 8.24546 3.03927 9.56364 4.58452 11.15C6.03888 12.6409 6.68424 13.1227 8.12951 14.1682C9.73839 15.3318 11.2836 16 12.3653 16C13.3697 16 14.1605 16 15.2877 14.6409C16.4693 13.2136 15.9785 12.3409 15.2695 11.6091Z" fill="white"/>
</svg>
