<svg width="20" height="19" viewBox="0 0 20 19" fill="none" xmlns="http://www.w3.org/2000/svg">
<path d="M14.0911 1C13.2618 1.0532 12.4567 1.32382 11.7443 1.78879C11.0415 2.24751 10.4496 2.88197 10.0175 3.6393C10.0097 3.65301 10.0058 3.65987 10 3.65987C9.99419 3.65987 9.99028 3.65301 9.98246 3.6393C9.55045 2.88197 8.95852 2.24751 8.25571 1.78879C7.54333 1.32382 6.73816 1.0532 5.90886 1C4.60695 1 3.35836 1.56266 2.43777 2.56421C1.51718 3.56576 1 4.92415 1 6.34055C1 11.4405 10 18 10 18C10 18 19 11.5091 19 6.34055C19 4.92415 18.4828 3.56576 17.5622 2.56421C16.6416 1.56266 15.3931 1 14.0911 1Z" stroke="#B6B8BC" stroke-linecap="round" stroke-linejoin="round"/>
</svg>
